<?xml version="1.0" standalone="no"?>
<!DOCTYPE svg PUBLIC "-//W3C//DTD SVG 20010904//EN"
 "http://www.w3.org/TR/2001/REC-SVG-20010904/DTD/svg10.dtd">
<svg version="1.0" xmlns="http://www.w3.org/2000/svg"
 width="256.000000pt" height="256.000000pt" viewBox="0 0 256.000000 256.000000"
 preserveAspectRatio="xMidYMid meet">
<metadata>
Created by potrace 1.11, written by Peter Selinger 2001-2013
</metadata>
<g transform="translate(0.000000,256.000000) scale(0.100000,-0.100000)"
fill="#000000" stroke="none">
<path d="M0 1280 l0 -1280 1280 0 1280 0 0 1280 0 1280 -1280 0 -1280 0 0
-1280z m1282 1200 c22 -16 48 -30 56 -30 21 0 80 -19 114 -36 14 -8 34 -14 43
-14 9 0 39 -18 67 -39 27 -22 69 -49 94 -61 31 -15 51 -34 64 -60 10 -21 26
-40 35 -43 43 -17 71 -121 40 -147 -8 -7 -15 -27 -15 -44 0 -18 -7 -41 -15
-52 -8 -10 -15 -31 -15 -45 0 -15 -7 -40 -15 -55 -8 -16 -15 -43 -15 -60 0
-21 -10 -39 -31 -60 -17 -16 -42 -51 -55 -79 -13 -27 -35 -68 -49 -90 -14 -22
-31 -51 -38 -65 -13 -28 -16 -31 -57 -79 -17 -19 -30 -30 -30 -24 0 15 22 64
44 96 33 49 10 39 -45 -19 -81 -85 -100 -107 -142 -158 -21 -25 -45 -46 -52
-46 -19 0 -19 5 1 36 19 28 15 28 -53 -7 -20 -10 -42 -19 -49 -19 -6 0 -19 -9
-28 -19 -23 -25 -34 -184 -24 -336 3 -60 9 -227 13 -370 5 -187 10 -271 21
-298 17 -44 20 -167 4 -151 -6 6 -15 35 -21 65 -5 30 -15 79 -20 109 -6 30 -8
88 -4 128 l6 73 -31 12 -30 11 0 162 c0 131 -3 164 -15 174 -20 16 -19 41 2
79 17 29 17 33 0 79 -11 32 -17 79 -17 130 0 107 -2 112 -59 113 -63 1 -95 12
-99 31 -3 14 8 18 65 20 l68 3 3 114 c2 70 -2 127 -9 145 -6 17 -15 85 -19
151 -4 66 -15 149 -25 185 -9 36 -20 103 -24 150 -7 78 -23 143 -41 163 -11
12 -93 -39 -115 -73 -11 -16 -28 -30 -37 -30 -23 0 -22 7 2 58 11 22 20 45 20
49 0 5 23 31 50 58 28 27 50 53 50 58 0 4 -15 5 -32 2 -27 -5 -36 -2 -46 15
-16 26 -11 31 93 85 39 20 88 47 110 60 35 20 54 23 153 24 110 1 113 0 154
-29z"/>
<path d="M1087 2313 c-12 -11 -8 -23 8 -23 8 0 15 7 15 15 0 16 -12 20 -23 8z"/>
<path d="M1186 2262 c-15 -19 -21 -49 -25 -123 -4 -58 -11 -103 -18 -111 -10
-9 -13 -7 -13 15 0 15 -5 27 -11 27 -8 0 -8 -7 -3 -22 5 -13 9 -184 9 -381 0
-297 2 -357 13 -352 8 3 31 5 53 5 34 0 41 4 54 33 19 42 33 63 73 111 17 22
32 44 32 50 0 13 41 72 118 172 28 37 52 74 52 81 0 7 4 13 8 13 19 0 88 107
99 154 14 58 1 229 -19 253 -17 21 -61 42 -157 74 -92 31 -149 36 -201 18 -22
-8 -34 -8 -39 -1 -3 6 -14 -1 -25 -16z"/>
<path d="M1054 2237 c-10 -26 1 -160 13 -164 16 -6 33 59 33 125 0 46 -2 52
-20 52 -11 0 -23 -6 -26 -13z"/>
<path d="M1505 1678 c-11 -13 -27 -39 -36 -58 -14 -29 -74 -113 -131 -181 -7
-8 -21 -30 -31 -47 -16 -28 -16 -32 -3 -32 9 0 16 4 16 8 0 9 25 42 54 72 8 8
20 27 27 43 7 15 15 27 19 27 4 0 12 12 19 28 7 15 31 53 52 85 41 60 50 96
14 55z"/>
<path d="M1082 588 c2 -18 8 -33 13 -33 6 0 11 15 13 33 3 24 -1 32 -13 32
-12 0 -16 -8 -13 -32z"/>
</g>
</svg>
